<svg id="visual" viewBox="0 0 900 600" width="900" height="600" xmlns="http://www.w3.org/2000/svg" xmlns:xlink="http://www.w3.org/1999/xlink" version="1.1"><path d="M0 109L13.7 99C27.3 89 54.7 69 82 58C109.3 47 136.7 45 163.8 49C191 53 218 63 245.2 73C272.3 83 299.7 93 327 90C354.3 87 381.7 71 409 63C436.3 55 463.7 55 491 56C518.3 57 545.7 59 573 59C600.3 59 627.7 57 654.8 65C682 73 709 91 736.2 94C763.3 97 790.7 85 818 79C845.3 73 872.7 73 886.3 73L900 73L900 0L886.3 0C872.7 0 845.3 0 818 0C790.7 0 763.3 0 736.2 0C709 0 682 0 654.8 0C627.7 0 600.3 0 573 0C545.7 0 518.3 0 491 0C463.7 0 436.3 0 409 0C381.7 0 354.3 0 327 0C299.7 0 272.3 0 245.2 0C218 0 191 0 163.8 0C136.7 0 109.3 0 82 0C54.7 0 27.3 0 13.7 0L0 0Z" fill="#6198ff"></path><path d="M0 355L13.7 346C27.3 337 54.7 319 82 286C109.3 253 136.7 205 163.8 180C191 155 218 153 245.2 176C272.3 199 299.7 247 327 256C354.3 265 381.7 235 409 237C436.3 239 463.7 273 491 267C518.3 261 545.7 215 573 189C600.3 163 627.7 157 654.8 171C682 185 709 219 736.2 253C763.3 287 790.7 321 818 309C845.3 297 872.7 239 886.3 210L900 181L900 71L886.3 71C872.7 71 845.3 71 818 77C790.7 83 763.3 95 736.2 92C709 89 682 71 654.8 63C627.7 55 600.3 57 573 57C545.7 57 518.3 55 491 54C463.7 53 436.3 53 409 61C381.7 69 354.3 85 327 88C299.7 91 272.3 81 245.2 71C218 61 191 51 163.8 47C136.7 43 109.3 45 82 56C54.7 67 27.3 87 13.7 97L0 107Z" fill="#3c80ff"></path><path d="M0 487L13.7 483C27.3 479 54.7 471 82 451C109.3 431 136.7 399 163.8 388C191 377 218 387 245.2 389C272.3 391 299.7 385 327 378C354.3 371 381.7 363 409 370C436.3 377 463.7 399 491 414C518.3 429 545.7 437 573 431C600.3 425 627.7 405 654.8 408C682 411 709 437 736.2 451C763.3 465 790.7 467 818 465C845.3 463 872.7 457 886.3 454L900 451L900 179L886.3 208C872.7 237 845.3 295 818 307C790.7 319 763.3 285 736.2 251C709 217 682 183 654.8 169C627.7 155 600.3 161 573 187C545.7 213 518.3 259 491 265C463.7 271 436.3 237 409 235C381.7 233 354.3 263 327 254C299.7 245 272.3 197 245.2 174C218 151 191 153 163.8 178C136.7 203 109.3 251 82 284C54.7 317 27.3 335 13.7 344L0 353Z" fill="#0066ff"></path><path d="M0 559L13.7 560C27.3 561 54.7 563 82 557C109.3 551 136.7 537 163.8 529C191 521 218 519 245.2 521C272.3 523 299.7 529 327 529C354.3 529 381.7 523 409 521C436.3 519 463.7 521 491 522C518.3 523 545.7 523 573 520C600.3 517 627.7 511 654.8 516C682 521 709 537 736.2 544C763.3 551 790.7 549 818 545C845.3 541 872.7 535 886.3 532L900 529L900 449L886.3 452C872.7 455 845.3 461 818 463C790.7 465 763.3 463 736.2 449C709 435 682 409 654.8 406C627.7 403 600.3 423 573 429C545.7 435 518.3 427 491 412C463.7 397 436.3 375 409 368C381.7 361 354.3 369 327 376C299.7 383 272.3 389 245.2 387C218 385 191 375 163.8 386C136.7 397 109.3 429 82 449C54.7 469 27.3 477 13.7 481L0 485Z" fill="#0059dd"></path><path d="M0 601L13.7 601C27.3 601 54.7 601 82 601C109.3 601 136.7 601 163.8 601C191 601 218 601 245.2 601C272.3 601 299.7 601 327 601C354.3 601 381.7 601 409 601C436.3 601 463.7 601 491 601C518.3 601 545.7 601 573 601C600.3 601 627.7 601 654.8 601C682 601 709 601 736.2 601C763.3 601 790.7 601 818 601C845.3 601 872.7 601 886.3 601L900 601L900 527L886.3 530C872.7 533 845.3 539 818 543C790.7 547 763.3 549 736.2 542C709 535 682 519 654.8 514C627.7 509 600.3 515 573 518C545.7 521 518.3 521 491 520C463.7 519 436.3 517 409 519C381.7 521 354.3 527 327 527C299.7 527 272.3 521 245.2 519C218 517 191 519 163.8 527C136.7 535 109.3 549 82 555C54.7 561 27.3 559 13.7 558L0 557Z" fill="#004cbb"></path></svg>